<svg xmlns="http://www.w3.org/2000/svg" viewBox="0 0 1000 402" width="1000" height="402" fill="none" role="img" aria-label="Certifications and workshops">
  <defs>
    <linearGradient id="cbg" x1="0" y1="0" x2="1000" y2="402" gradientUnits="userSpaceOnUse">
      <stop offset="0" stop-color="#04070a"/><stop offset="1" stop-color="#0a2226"/>
    </linearGradient>
  </defs>
  <rect width="1000" height="402" rx="16" fill="url(#cbg)"/>
  <rect x="24" y="24" width="952" height="78" rx="12" fill="#0b1519" stroke="#22d3ee" stroke-opacity="0.25" stroke-width="1.25"/><rect x="24" y="24" width="4" height="78" rx="2" fill="#22d3ee"/><rect x="46" y="47" width="62" height="32" rx="16" fill="#22d3ee" fill-opacity="0.14" stroke="#22d3ee" stroke-opacity="0.5" stroke-width="1"/><text x="77" y="68" text-anchor="middle" font-family="'Segoe UI',Verdana,Arial,sans-serif" font-weight="800" font-size="16" fill="#22d3ee">2025</text><g transform="translate(152,57.0)">
      <circle cx="0" cy="-4" r="15" fill="none" stroke="#22d3ee" stroke-width="2.5"/>
      <circle cx="0" cy="-4" r="15" fill="none" stroke="#22d3ee" stroke-width="1.5" stroke-opacity="0.7" stroke-dasharray="4 6">
        <animateTransform attributeName="transform" type="rotate" from="0 0 -4" to="360 0 -4" dur="7s" repeatCount="indefinite"/>
      </circle>
      <circle cx="0" cy="-4" r="7" fill="#22d3ee" fill-opacity="0.3">
        <animate attributeName="fill-opacity" values="0.15;0.55;0.15" dur="2.4s" repeatCount="indefinite"/>
      </circle>
      <path d="M-7 8 L-4 22 L0 16 L4 22 L7 8" fill="none" stroke="#22d3ee" stroke-width="2.5" stroke-linejoin="round"/>
    </g><text x="192" y="61" font-family="'Segoe UI',Verdana,Arial,sans-serif" font-weight="700" font-size="17" fill="#eaf7f9">Cath Lab · PET-CT · MRI — hands-on training</text><text x="192" y="83" font-family="'Consolas','Courier New',monospace" font-weight="500" font-size="13" fill="#82abb4">GE Healthcare · Bengaluru</text><rect x="24" y="116" width="952" height="78" rx="12" fill="#0b1519" stroke="#8b5cf6" stroke-opacity="0.25" stroke-width="1.25"/><rect x="24" y="116" width="4" height="78" rx="2" fill="#8b5cf6"/><rect x="46" y="139" width="62" height="32" rx="16" fill="#8b5cf6" fill-opacity="0.14" stroke="#8b5cf6" stroke-opacity="0.5" stroke-width="1"/><text x="77" y="160" text-anchor="middle" font-family="'Segoe UI',Verdana,Arial,sans-serif" font-weight="800" font-size="16" fill="#8b5cf6">2025</text><g transform="translate(152,149.0)">
      <circle cx="0" cy="-4" r="15" fill="none" stroke="#8b5cf6" stroke-width="2.5"/>
      <circle cx="0" cy="-4" r="15" fill="none" stroke="#8b5cf6" stroke-width="1.5" stroke-opacity="0.7" stroke-dasharray="4 6">
        <animateTransform attributeName="transform" type="rotate" from="0 0 -4" to="360 0 -4" dur="8s" repeatCount="indefinite"/>
      </circle>
      <circle cx="0" cy="-4" r="7" fill="#8b5cf6" fill-opacity="0.3">
        <animate attributeName="fill-opacity" values="0.15;0.55;0.15" dur="2.4s" repeatCount="indefinite"/>
      </circle>
      <path d="M-7 8 L-4 22 L0 16 L4 22 L7 8" fill="none" stroke="#8b5cf6" stroke-width="2.5" stroke-linejoin="round"/>
    </g><text x="192" y="153" font-family="'Segoe UI',Verdana,Arial,sans-serif" font-weight="700" font-size="17" fill="#eaf7f9">Product Development Workshop</text><text x="192" y="175" font-family="'Consolas','Courier New',monospace" font-weight="500" font-size="13" fill="#82abb4">IEEE × Einstein Box</text><rect x="24" y="208" width="952" height="78" rx="12" fill="#0b1519" stroke="#38bdf8" stroke-opacity="0.25" stroke-width="1.25"/><rect x="24" y="208" width="4" height="78" rx="2" fill="#38bdf8"/><rect x="46" y="231" width="62" height="32" rx="16" fill="#38bdf8" fill-opacity="0.14" stroke="#38bdf8" stroke-opacity="0.5" stroke-width="1"/><text x="77" y="252" text-anchor="middle" font-family="'Segoe UI',Verdana,Arial,sans-serif" font-weight="800" font-size="16" fill="#38bdf8">2024</text><g transform="translate(152,241.0)">
      <circle cx="0" cy="-4" r="15" fill="none" stroke="#38bdf8" stroke-width="2.5"/>
      <circle cx="0" cy="-4" r="15" fill="none" stroke="#38bdf8" stroke-width="1.5" stroke-opacity="0.7" stroke-dasharray="4 6">
        <animateTransform attributeName="transform" type="rotate" from="0 0 -4" to="360 0 -4" dur="9s" repeatCount="indefinite"/>
      </circle>
      <circle cx="0" cy="-4" r="7" fill="#38bdf8" fill-opacity="0.3">
        <animate attributeName="fill-opacity" values="0.15;0.55;0.15" dur="2.4s" repeatCount="indefinite"/>
      </circle>
      <path d="M-7 8 L-4 22 L0 16 L4 22 L7 8" fill="none" stroke="#38bdf8" stroke-width="2.5" stroke-linejoin="round"/>
    </g><text x="192" y="245" font-family="'Segoe UI',Verdana,Arial,sans-serif" font-weight="700" font-size="17" fill="#eaf7f9">CT &amp; X-Ray Modality Workshop</text><text x="192" y="267" font-family="'Consolas','Courier New',monospace" font-weight="500" font-size="13" fill="#82abb4">UPES Dehradun</text><rect x="24" y="300" width="952" height="78" rx="12" fill="#0b1519" stroke="#2dd4bf" stroke-opacity="0.25" stroke-width="1.25"/><rect x="24" y="300" width="4" height="78" rx="2" fill="#2dd4bf"/><rect x="46" y="323" width="62" height="32" rx="16" fill="#2dd4bf" fill-opacity="0.14" stroke="#2dd4bf" stroke-opacity="0.5" stroke-width="1"/><text x="77" y="344" text-anchor="middle" font-family="'Segoe UI',Verdana,Arial,sans-serif" font-weight="800" font-size="16" fill="#2dd4bf">2024</text><g transform="translate(152,333.0)">
      <circle cx="0" cy="-4" r="15" fill="none" stroke="#2dd4bf" stroke-width="2.5"/>
      <circle cx="0" cy="-4" r="15" fill="none" stroke="#2dd4bf" stroke-width="1.5" stroke-opacity="0.7" stroke-dasharray="4 6">
        <animateTransform attributeName="transform" type="rotate" from="0 0 -4" to="360 0 -4" dur="10s" repeatCount="indefinite"/>
      </circle>
      <circle cx="0" cy="-4" r="7" fill="#2dd4bf" fill-opacity="0.3">
        <animate attributeName="fill-opacity" values="0.15;0.55;0.15" dur="2.4s" repeatCount="indefinite"/>
      </circle>
      <path d="M-7 8 L-4 22 L0 16 L4 22 L7 8" fill="none" stroke="#2dd4bf" stroke-width="2.5" stroke-linejoin="round"/>
    </g><text x="192" y="337" font-family="'Segoe UI',Verdana,Arial,sans-serif" font-weight="700" font-size="17" fill="#eaf7f9">Anaesthesia · Ventilator · Monitor · Ultrasound</text><text x="192" y="359" font-family="'Consolas','Courier New',monospace" font-weight="500" font-size="13" fill="#82abb4">UPES Dehradun</text>
</svg>