<svg xmlns="http://www.w3.org/2000/svg" viewBox="0 0 460 200" width="460" height="200" fill="none" role="img" aria-label="RvFx Trading Bot">
  <defs>
    <linearGradient id="bg" x1="0" y1="0" x2="460" y2="200" gradientUnits="userSpaceOnUse">
      <stop offset="0" stop-color="#05090c"/><stop offset="1" stop-color="#0a2228"/>
    </linearGradient>
    <radialGradient id="gl" cx="0.22" cy="0.5" r="0.5">
      <stop offset="0" stop-color="#f59e0b" stop-opacity="0.18"/><stop offset="1" stop-color="#f59e0b" stop-opacity="0"/>
    </radialGradient>
  </defs>
  <rect x="1" y="1" width="458" height="198" rx="16" fill="url(#bg)" stroke="#f59e0b" stroke-opacity="0.32" stroke-width="1.5"/>
  <ellipse cx="105" cy="100" rx="150" ry="110" fill="url(#gl)"/>
  <g stroke="#f59e0b" stroke-opacity="0.05" stroke-width="1"><path d="M0 66 H460 M0 133 H460"/></g>
  <path d="M18 40 V22 a4 4 0 0 1 4 -4 H40" stroke="#f59e0b" stroke-width="2" stroke-opacity="0.75"/>
  <path d="M442 160 V178 a4 4 0 0 1 -4 4 H420" stroke="#f59e0b" stroke-width="2" stroke-opacity="0.75"/>
  <g transform="translate(78,100)"><line x1="-22" y1="-14" x2="-22" y2="16" stroke="#f59e0b" stroke-width="2"/><rect x="-28" y="-6" width="12" height="14" rx="2" fill="#f59e0b" fill-opacity="0.30" stroke="#f59e0b" stroke-width="2"/><line x1="0" y1="-24" x2="0" y2="12" stroke="#f59e0b" stroke-width="2"/><rect x="-6" y="-16" width="12" height="20" rx="2" fill="none" fill-opacity="1" stroke="#f59e0b" stroke-width="2"/><line x1="22" y1="-10" x2="22" y2="16" stroke="#f59e0b" stroke-width="2"/><rect x="16" y="-2" width="12" height="10" rx="2" fill="#f59e0b" fill-opacity="0.30" stroke="#f59e0b" stroke-width="2"/></g>
  <text x="150" y="86" font-family="'Segoe UI',Verdana,Arial,sans-serif" font-weight="800" font-size="23" fill="#e9fdff">RvFx Trading Bot</text>
  <text x="150" y="114" font-family="'Consolas','Courier New',monospace" font-weight="600" font-size="13.5" letter-spacing="1" fill="#8bd6e0">MQL5  ·  MetaTrader 5</text>
  <rect x="150" y="130" width="130" height="24" rx="12" fill="#f59e0b" fill-opacity="0.16" stroke="#f59e0b" stroke-opacity="0.55" stroke-width="1"/>
  <circle cx="164" cy="142" r="3.5" fill="#f59e0b"/>
  <text x="176" y="146" font-family="'Consolas','Courier New',monospace" font-weight="700" font-size="12" letter-spacing="1.5" fill="#f59e0b">LIVE TESTING</text>
</svg>
