<svg xmlns="http://www.w3.org/2000/svg" viewBox="0 0 500 150" width="500" height="150" fill="none" role="img" aria-label="Wireless Power">
  <defs>
    <linearGradient id="bg" x1="0" y1="0" x2="0" y2="150" gradientUnits="userSpaceOnUse">
      <stop offset="0" stop-color="#0b1418"/><stop offset="1" stop-color="#0a1013"/>
    </linearGradient>
  </defs>
  <rect x="0.75" y="0.75" width="498.5" height="148.5" rx="14" fill="url(#bg)" stroke="#1e3238" stroke-width="1.5"/>
  <!-- left accent bar -->
  <rect x="0.75" y="0.75" width="5" height="148.5" rx="2.5" fill="#f97316"/>
  <!-- icon -->
  <g transform="translate(66,75) scale(1.15)"><circle cx="0" cy="0" r="4" fill="#f97316"/><path d="M-10 -10 a10 10 0 0 0 0 20" fill="none" stroke="#f97316" stroke-width="2.5" stroke-opacity="1" stroke-linecap="round"/><path d="M10 -10 a10 10 0 0 1 0 20" fill="none" stroke="#f97316" stroke-width="2.5" stroke-opacity="1" stroke-linecap="round"/><path d="M-19 -19 a19 19 0 0 0 0 38" fill="none" stroke="#f97316" stroke-width="2.5" stroke-opacity="0.6" stroke-linecap="round"/><path d="M19 -19 a19 19 0 0 1 0 38" fill="none" stroke="#f97316" stroke-width="2.5" stroke-opacity="0.6" stroke-linecap="round"/><path d="M-28 -28 a28 28 0 0 0 0 56" fill="none" stroke="#f97316" stroke-width="2.5" stroke-opacity="0.3" stroke-linecap="round"/><path d="M28 -28 a28 28 0 0 1 0 56" fill="none" stroke="#f97316" stroke-width="2.5" stroke-opacity="0.3" stroke-linecap="round"/></g>
  <!-- text -->
  <text x="120" y="64" font-family="'Segoe UI',Verdana,Arial,sans-serif" font-weight="700" font-size="26" fill="#eef7f9">Wireless Power</text>
  <text x="121" y="90" font-family="'Consolas','Courier New',monospace" font-weight="500" font-size="14" letter-spacing="0.5" fill="#7fa6ae">ZVS  ·  Resonant Coupling</text>
  <circle cx="127" cy="112" r="3.5" fill="#f97316"/>
  <text x="139" y="116" font-family="'Consolas','Courier New',monospace" font-weight="600" font-size="12" letter-spacing="1.5" fill="#f97316">EXHIBITED</text>
</svg>
