<svg xmlns="http://www.w3.org/2000/svg" viewBox="0 0 500 150" width="500" height="150" fill="none" role="img" aria-label="Electrochemical Sensing">
  <defs>
    <linearGradient id="bg" x1="0" y1="0" x2="0" y2="150" gradientUnits="userSpaceOnUse">
      <stop offset="0" stop-color="#0b1418"/><stop offset="1" stop-color="#0a1013"/>
    </linearGradient>
  </defs>
  <rect x="0.75" y="0.75" width="498.5" height="148.5" rx="14" fill="url(#bg)" stroke="#1e3238" stroke-width="1.5"/>
  <!-- left accent bar -->
  <rect x="0.75" y="0.75" width="5" height="148.5" rx="2.5" fill="#2dd4bf"/>
  <!-- icon -->
  <g transform="translate(66,75) scale(1.15)"><path d="M-9 -24 h18 M-7 -24 v12 l-13 28 a5 5 0 0 0 4.6 7 h30.8 a5 5 0 0 0 4.6 -7 l-13 -28 v-12"
        fill="#2dd4bf" fill-opacity="0.14" stroke="#2dd4bf" stroke-width="3" stroke-linejoin="round"/>
      <path d="M-16 6 h32" stroke="#2dd4bf" stroke-width="2" stroke-opacity="0.6"/>
      <path d="M-11 14 l6 0 3 -8 4 14 3 -6 h6" fill="none" stroke="#2dd4bf" stroke-width="2" stroke-linecap="round" stroke-linejoin="round"/></g>
  <!-- text -->
  <text x="120" y="64" font-family="'Segoe UI',Verdana,Arial,sans-serif" font-weight="700" font-size="26" fill="#eef7f9">Electrochemical Sensing</text>
  <text x="121" y="90" font-family="'Consolas','Courier New',monospace" font-weight="500" font-size="14" letter-spacing="0.5" fill="#7fa6ae">Potentiostat  ·  Biosensing</text>
  <circle cx="127" cy="112" r="3.5" fill="#2dd4bf"/>
  <text x="139" y="116" font-family="'Consolas','Courier New',monospace" font-weight="600" font-size="12" letter-spacing="1.5" fill="#2dd4bf">CONFIDENTIAL R&amp;D</text>
</svg>
