<svg xmlns="http://www.w3.org/2000/svg" viewBox="0 0 480 132" width="480" height="132" fill="none" role="img" aria-label="RvFx Trading Bot">
  <defs>
    <linearGradient id="bg" x1="0" y1="0" x2="480" y2="132" gradientUnits="userSpaceOnUse">
      <stop offset="0" stop-color="#080e11"/><stop offset="1" stop-color="#0a1a1e"/>
    </linearGradient>
    <radialGradient id="gl" cx="0.14" cy="0.5" r="0.42">
      <stop offset="0" stop-color="#f59e0b" stop-opacity="0.13"/><stop offset="1" stop-color="#f59e0b" stop-opacity="0"/>
    </radialGradient>
    <style>.ico{animation:fl 3.6s ease-in-out infinite}@keyframes fl{0%,100%{transform:translateY(0)}50%{transform:translateY(-3px)}}</style>
  </defs>
  <rect x="0.75" y="0.75" width="478.5" height="130.5" rx="13" fill="url(#bg)" stroke="#f59e0b" stroke-opacity="0.28" stroke-width="1.25"/>
  <rect x="0.75" y="0.75" width="4" height="130.5" rx="2" fill="#f59e0b"/>
  <ellipse cx="60" cy="66" rx="80" ry="60" fill="url(#gl)"/>
  <g transform="translate(58,66) scale(0.9)"><g class="ico"><line x1="-22" y1="-14" x2="-22" y2="16" stroke="#f59e0b" stroke-width="2"/><rect x="-28" y="-6" width="12" height="14" rx="2" fill="#f59e0b" fill-opacity="0.30" stroke="#f59e0b" stroke-width="2"/><line x1="0" y1="-24" x2="0" y2="12" stroke="#f59e0b" stroke-width="2"/><rect x="-6" y="-16" width="12" height="20" rx="2" fill="none" fill-opacity="1" stroke="#f59e0b" stroke-width="2"/><line x1="22" y1="-10" x2="22" y2="16" stroke="#f59e0b" stroke-width="2"/><rect x="16" y="-2" width="12" height="10" rx="2" fill="#f59e0b" fill-opacity="0.30" stroke="#f59e0b" stroke-width="2"/></g></g>
  <text x="106" y="55" font-family="'Segoe UI',Verdana,Arial,sans-serif" font-weight="700" font-size="21" fill="#eaf7f9">RvFx Trading Bot</text>
  <text x="107" y="79" font-family="'Consolas','Courier New',monospace" font-weight="500" font-size="12.5" letter-spacing="0.5" fill="#82abb4">MQL5  ·  MetaTrader 5</text>
  <circle cx="112" cy="99" r="3" fill="#f59e0b"><animate attributeName="opacity" values="0.4;1;0.4" dur="2.2s" repeatCount="indefinite"/></circle>
  <text x="123" y="103" font-family="'Consolas','Courier New',monospace" font-weight="700" font-size="11" letter-spacing="1.2" fill="#f59e0b">LIVE TESTING</text>
</svg>
