<svg xmlns="http://www.w3.org/2000/svg" viewBox="0 0 480 132" width="480" height="132" fill="none" role="img" aria-label="Wireless Power">
  <defs>
    <linearGradient id="bg" x1="0" y1="0" x2="480" y2="132" gradientUnits="userSpaceOnUse">
      <stop offset="0" stop-color="#080e11"/><stop offset="1" stop-color="#0a1a1e"/>
    </linearGradient>
    <radialGradient id="gl" cx="0.14" cy="0.5" r="0.42">
      <stop offset="0" stop-color="#f97316" stop-opacity="0.13"/><stop offset="1" stop-color="#f97316" stop-opacity="0"/>
    </radialGradient>
    <style>.ico{animation:fl 3.6s ease-in-out infinite}@keyframes fl{0%,100%{transform:translateY(0)}50%{transform:translateY(-3px)}}</style>
  </defs>
  <rect x="0.75" y="0.75" width="478.5" height="130.5" rx="13" fill="url(#bg)" stroke="#f97316" stroke-opacity="0.28" stroke-width="1.25"/>
  <rect x="0.75" y="0.75" width="4" height="130.5" rx="2" fill="#f97316"/>
  <ellipse cx="60" cy="66" rx="80" ry="60" fill="url(#gl)"/>
  <g transform="translate(58,66) scale(0.9)"><g class="ico"><circle cx="0" cy="0" r="4" fill="#f97316"/><path d="M-10 -10 a10 10 0 0 0 0 20" fill="none" stroke="#f97316" stroke-width="2.5" stroke-opacity="1" stroke-linecap="round"/><path d="M10 -10 a10 10 0 0 1 0 20" fill="none" stroke="#f97316" stroke-width="2.5" stroke-opacity="1" stroke-linecap="round"/><path d="M-19 -19 a19 19 0 0 0 0 38" fill="none" stroke="#f97316" stroke-width="2.5" stroke-opacity="0.6" stroke-linecap="round"/><path d="M19 -19 a19 19 0 0 1 0 38" fill="none" stroke="#f97316" stroke-width="2.5" stroke-opacity="0.6" stroke-linecap="round"/><path d="M-28 -28 a28 28 0 0 0 0 56" fill="none" stroke="#f97316" stroke-width="2.5" stroke-opacity="0.3" stroke-linecap="round"/><path d="M28 -28 a28 28 0 0 1 0 56" fill="none" stroke="#f97316" stroke-width="2.5" stroke-opacity="0.3" stroke-linecap="round"/></g></g>
  <text x="106" y="55" font-family="'Segoe UI',Verdana,Arial,sans-serif" font-weight="700" font-size="21" fill="#eaf7f9">Wireless Power</text>
  <text x="107" y="79" font-family="'Consolas','Courier New',monospace" font-weight="500" font-size="12.5" letter-spacing="0.5" fill="#82abb4">ZVS  ·  Resonant Coupling</text>
  <circle cx="112" cy="99" r="3" fill="#f97316"><animate attributeName="opacity" values="0.4;1;0.4" dur="2.2s" repeatCount="indefinite"/></circle>
  <text x="123" y="103" font-family="'Consolas','Courier New',monospace" font-weight="700" font-size="11" letter-spacing="1.2" fill="#f97316">EXHIBITED</text>
</svg>
