<svg xmlns="http://www.w3.org/2000/svg" viewBox="0 0 480 132" width="480" height="132" fill="none" role="img" aria-label="Electrochemical Sensing">
  <defs>
    <linearGradient id="bg" x1="0" y1="0" x2="480" y2="132" gradientUnits="userSpaceOnUse">
      <stop offset="0" stop-color="#080e11"/><stop offset="1" stop-color="#0a1a1e"/>
    </linearGradient>
    <radialGradient id="gl" cx="0.14" cy="0.5" r="0.42">
      <stop offset="0" stop-color="#2dd4bf" stop-opacity="0.13"/><stop offset="1" stop-color="#2dd4bf" stop-opacity="0"/>
    </radialGradient>
    <style>.ico{animation:fl 3.6s ease-in-out infinite}@keyframes fl{0%,100%{transform:translateY(0)}50%{transform:translateY(-3px)}}</style>
  </defs>
  <rect x="0.75" y="0.75" width="478.5" height="130.5" rx="13" fill="url(#bg)" stroke="#2dd4bf" stroke-opacity="0.28" stroke-width="1.25"/>
  <rect x="0.75" y="0.75" width="4" height="130.5" rx="2" fill="#2dd4bf"/>
  <ellipse cx="60" cy="66" rx="80" ry="60" fill="url(#gl)"/>
  <g transform="translate(58,66) scale(0.9)"><g class="ico"><path d="M-9 -24 h18 M-7 -24 v12 l-13 28 a5 5 0 0 0 4.6 7 h30.8 a5 5 0 0 0 4.6 -7 l-13 -28 v-12"
        fill="#2dd4bf" fill-opacity="0.14" stroke="#2dd4bf" stroke-width="3" stroke-linejoin="round"/>
      <path d="M-16 6 h32" stroke="#2dd4bf" stroke-width="2" stroke-opacity="0.6"/>
      <path d="M-11 14 l6 0 3 -8 4 14 3 -6 h6" fill="none" stroke="#2dd4bf" stroke-width="2" stroke-linecap="round" stroke-linejoin="round"/></g></g>
  <text x="106" y="55" font-family="'Segoe UI',Verdana,Arial,sans-serif" font-weight="700" font-size="21" fill="#eaf7f9">Electrochemical Sensing</text>
  <text x="107" y="79" font-family="'Consolas','Courier New',monospace" font-weight="500" font-size="12.5" letter-spacing="0.5" fill="#82abb4">Potentiostat  ·  Biosensing</text>
  <circle cx="112" cy="99" r="3" fill="#2dd4bf"><animate attributeName="opacity" values="0.4;1;0.4" dur="2.2s" repeatCount="indefinite"/></circle>
  <text x="123" y="103" font-family="'Consolas','Courier New',monospace" font-weight="700" font-size="11" letter-spacing="1.2" fill="#2dd4bf">CONFIDENTIAL R&amp;D</text>
</svg>
