<svg xmlns="http://www.w3.org/2000/svg" viewBox="0 0 460 200" width="460" height="200" fill="none" role="img" aria-label="Wireless Power">
  <defs>
    <linearGradient id="bg" x1="0" y1="0" x2="460" y2="200" gradientUnits="userSpaceOnUse">
      <stop offset="0" stop-color="#05090c"/><stop offset="1" stop-color="#0a2228"/>
    </linearGradient>
    <radialGradient id="gl" cx="0.22" cy="0.5" r="0.5">
      <stop offset="0" stop-color="#f97316" stop-opacity="0.20"/><stop offset="1" stop-color="#f97316" stop-opacity="0"/>
    </radialGradient>
  </defs>
  <rect x="1" y="1" width="458" height="198" rx="16" fill="url(#bg)" stroke="#f97316" stroke-opacity="0.35" stroke-width="1.5"/>
  <ellipse cx="105" cy="100" rx="150" ry="110" fill="url(#gl)"/>
  <g stroke="#f97316" stroke-opacity="0.06" stroke-width="1"><path d="M0 66 H460 M0 133 H460"/></g>
  <!-- corner accent -->
  <path d="M18 40 V22 a4 4 0 0 1 4 -4 H40" stroke="#f97316" stroke-width="2" stroke-opacity="0.8"/>
  <path d="M442 160 V178 a4 4 0 0 1 -4 4 H420" stroke="#f97316" stroke-width="2" stroke-opacity="0.8"/>
  <!-- icon -->
  <g transform="translate(78,100)"><circle cx="0" cy="0" r="4" fill="#f97316"/><path d="M-10 -10 a10 10 0 0 0 0 20" fill="none" stroke="#f97316" stroke-width="2.5" stroke-opacity="1" stroke-linecap="round"/><path d="M10 -10 a10 10 0 0 1 0 20" fill="none" stroke="#f97316" stroke-width="2.5" stroke-opacity="1" stroke-linecap="round"/><path d="M-19 -19 a19 19 0 0 0 0 38" fill="none" stroke="#f97316" stroke-width="2.5" stroke-opacity="0.6" stroke-linecap="round"/><path d="M19 -19 a19 19 0 0 1 0 38" fill="none" stroke="#f97316" stroke-width="2.5" stroke-opacity="0.6" stroke-linecap="round"/><path d="M-28 -28 a28 28 0 0 0 0 56" fill="none" stroke="#f97316" stroke-width="2.5" stroke-opacity="0.3" stroke-linecap="round"/><path d="M28 -28 a28 28 0 0 1 0 56" fill="none" stroke="#f97316" stroke-width="2.5" stroke-opacity="0.3" stroke-linecap="round"/></g>
  <!-- text -->
  <text x="150" y="86" font-family="'Segoe UI',Verdana,Arial,sans-serif" font-weight="800" font-size="23" fill="#e9fdff">Wireless Power</text>
  <text x="150" y="114" font-family="'Consolas','Courier New',monospace" font-weight="600" font-size="13.5" letter-spacing="1" fill="#8bd6e0">ZVS  ·  Resonant Coupling</text>
  <rect x="150" y="130" width="106" height="24" rx="12" fill="#f97316" fill-opacity="0.16" stroke="#f97316" stroke-opacity="0.55" stroke-width="1"/>
  <circle cx="164" cy="142" r="3.5" fill="#f97316"/>
  <text x="176" y="146" font-family="'Consolas','Courier New',monospace" font-weight="700" font-size="12" letter-spacing="1.5" fill="#f97316">EXHIBITED</text>
</svg>
