<svg xmlns="http://www.w3.org/2000/svg" viewBox="0 0 480 132" width="480" height="132" fill="none" role="img" aria-label="Smart Pill Dispenser">
  <defs>
    <linearGradient id="bg" x1="0" y1="0" x2="480" y2="132" gradientUnits="userSpaceOnUse">
      <stop offset="0" stop-color="#080e11"/><stop offset="1" stop-color="#0a1a1e"/>
    </linearGradient>
    <radialGradient id="gl" cx="0.14" cy="0.5" r="0.42">
      <stop offset="0" stop-color="#38bdf8" stop-opacity="0.13"/><stop offset="1" stop-color="#38bdf8" stop-opacity="0"/>
    </radialGradient>
    <style>.ico{animation:fl 3.6s ease-in-out infinite}@keyframes fl{0%,100%{transform:translateY(0)}50%{transform:translateY(-3px)}}</style>
  </defs>
  <rect x="0.75" y="0.75" width="478.5" height="130.5" rx="13" fill="url(#bg)" stroke="#38bdf8" stroke-opacity="0.28" stroke-width="1.25"/>
  <rect x="0.75" y="0.75" width="4" height="130.5" rx="2" fill="#38bdf8"/>
  <ellipse cx="60" cy="66" rx="80" ry="60" fill="url(#gl)"/>
  <g transform="translate(58,66) scale(0.9)"><g class="ico"><g transform="rotate(-35)">
      <rect x="-28" y="-12" width="56" height="24" rx="12" fill="none" stroke="#38bdf8" stroke-width="3"/>
      <path d="M-16 -12 a12 12 0 0 0 0 24 h-12 a12 12 0 0 1 0 -24 z" fill="#38bdf8" fill-opacity="0.30"/>
      <line x1="0" y1="-12" x2="0" y2="12" stroke="#38bdf8" stroke-width="3"/>
    </g></g></g>
  <text x="106" y="55" font-family="'Segoe UI',Verdana,Arial,sans-serif" font-weight="700" font-size="21" fill="#eaf7f9">Smart Pill Dispenser</text>
  <text x="107" y="79" font-family="'Consolas','Courier New',monospace" font-weight="500" font-size="12.5" letter-spacing="0.5" fill="#82abb4">ESP32-S3  ·  KiCad</text>
  <circle cx="112" cy="99" r="3" fill="#38bdf8"><animate attributeName="opacity" values="0.4;1;0.4" dur="2.2s" repeatCount="indefinite"/></circle>
  <text x="123" y="103" font-family="'Consolas','Courier New',monospace" font-weight="700" font-size="11" letter-spacing="1.2" fill="#38bdf8">FAB-READY PCB</text>
</svg>
