<svg xmlns="http://www.w3.org/2000/svg" viewBox="0 0 460 200" width="460" height="200" fill="none" role="img" aria-label="Friday — AI Assistant">
  <defs>
    <linearGradient id="bg" x1="0" y1="0" x2="460" y2="200" gradientUnits="userSpaceOnUse">
      <stop offset="0" stop-color="#05090c"/><stop offset="1" stop-color="#0a2228"/>
    </linearGradient>
    <radialGradient id="gl" cx="0.22" cy="0.5" r="0.5">
      <stop offset="0" stop-color="#ec4899" stop-opacity="0.20"/><stop offset="1" stop-color="#ec4899" stop-opacity="0"/>
    </radialGradient>
  </defs>
  <rect x="1" y="1" width="458" height="198" rx="16" fill="url(#bg)" stroke="#ec4899" stroke-opacity="0.35" stroke-width="1.5"/>
  <ellipse cx="105" cy="100" rx="150" ry="110" fill="url(#gl)"/>
  <g stroke="#ec4899" stroke-opacity="0.06" stroke-width="1"><path d="M0 66 H460 M0 133 H460"/></g>
  <!-- corner accent -->
  <path d="M18 40 V22 a4 4 0 0 1 4 -4 H40" stroke="#ec4899" stroke-width="2" stroke-opacity="0.8"/>
  <path d="M442 160 V178 a4 4 0 0 1 -4 4 H420" stroke="#ec4899" stroke-width="2" stroke-opacity="0.8"/>
  <!-- icon -->
  <g transform="translate(78,100)"><rect x="-9" y="-26" width="18" height="34" rx="9" fill="#ec4899" fill-opacity="0.20" stroke="#ec4899" stroke-width="3"/>
      <path d="M-17 0 a17 17 0 0 0 34 0" fill="none" stroke="#ec4899" stroke-width="3"/>
      <line x1="0" y1="17" x2="0" y2="27" stroke="#ec4899" stroke-width="3"/>
      <line x1="-9" y1="27" x2="9" y2="27" stroke="#ec4899" stroke-width="3" stroke-linecap="round"/></g>
  <!-- text -->
  <text x="150" y="86" font-family="'Segoe UI',Verdana,Arial,sans-serif" font-weight="800" font-size="23" fill="#e9fdff">Friday — AI Assistant</text>
  <text x="150" y="114" font-family="'Consolas','Courier New',monospace" font-weight="600" font-size="13.5" letter-spacing="1" fill="#8bd6e0">Voice  ·  Vision  ·  FastAPI</text>
  <rect x="150" y="130" width="130" height="24" rx="12" fill="#ec4899" fill-opacity="0.16" stroke="#ec4899" stroke-opacity="0.55" stroke-width="1"/>
  <circle cx="164" cy="142" r="3.5" fill="#ec4899"/>
  <text x="176" y="146" font-family="'Consolas','Courier New',monospace" font-weight="700" font-size="12" letter-spacing="1.5" fill="#ec4899">ACTIVE BUILD</text>
</svg>
