<svg xmlns="http://www.w3.org/2000/svg" viewBox="0 0 1200 340" width="1200" height="340" fill="none" role="img" aria-label="Bipin Vishwakarma - Biomedical Engineer, Embedded Hardware, AI">
  <defs>
    <linearGradient id="bg" x1="0" y1="0" x2="1200" y2="340" gradientUnits="userSpaceOnUse">
      <stop offset="0" stop-color="#04070a"/><stop offset="0.5" stop-color="#06171b"/><stop offset="1" stop-color="#0a2b30"/>
    </linearGradient>
    <linearGradient id="cyanText" x1="0" y1="0" x2="0" y2="1">
      <stop offset="0" stop-color="#e6fbff"/><stop offset="1" stop-color="#22d3ee"/>
    </linearGradient>
    <linearGradient id="line" x1="0" y1="0" x2="1200" y2="0" gradientUnits="userSpaceOnUse">
      <stop offset="0" stop-color="#0e7490" stop-opacity="0"/><stop offset="0.5" stop-color="#22d3ee"/><stop offset="1" stop-color="#67e8f9" stop-opacity="0"/>
    </linearGradient>
    <radialGradient id="glow" cx="0.5" cy="0.5" r="0.5">
      <stop offset="0" stop-color="#22d3ee" stop-opacity="0.32"/><stop offset="1" stop-color="#22d3ee" stop-opacity="0"/>
    </radialGradient>
    <filter id="soft" x="-20%" y="-40%" width="140%" height="180%">
      <feGaussianBlur stdDeviation="3" result="b"/><feMerge><feMergeNode in="b"/><feMergeNode in="SourceGraphic"/></feMerge>
    </filter>
    <clipPath id="dnaClip"><rect x="980" y="34" width="140" height="266" rx="10"/></clipPath>
    <style>
      .twk { animation: tw 3s ease-in-out infinite; } .twk2 { animation: tw 4.2s ease-in-out infinite; } .twk3 { animation: tw 2.4s ease-in-out infinite; }
      @keyframes tw { 0%,100%{opacity:.15} 50%{opacity:.9} }
      .pulse { stroke-dasharray: 55 1545; stroke-dashoffset: 1600; animation: draw 3.4s linear infinite; }
      @keyframes draw { 0%{stroke-dashoffset:1600} 100%{stroke-dashoffset:0} }
      .dna { animation: spin 5.9s linear infinite; }
      @keyframes spin { from{transform:translateY(0)} to{transform:translateY(-130px)} }
      .rise { animation: rise 5s ease-in-out infinite; }
      @keyframes rise { 0%,100%{transform:translateY(0)} 50%{transform:translateY(-4px)} }
    </style>
  </defs>

  <rect width="1200" height="340" rx="16" fill="url(#bg)"/>
  <ellipse cx="600" cy="180" rx="620" ry="220" fill="url(#glow)"/>

  <g stroke="#22d3ee" stroke-opacity="0.06" stroke-width="1">
    <path d="M0 60 H1200 M0 120 H1200 M0 180 H1200 M0 240 H1200 M0 300 H1200"/>
    <path d="M120 0 V340 M240 0 V340 M360 0 V340 M480 0 V340 M600 0 V340 M720 0 V340 M840 0 V340 M960 0 V340 M1080 0 V340"/>
  </g>

  <g stroke="#22d3ee" stroke-opacity="0.28" stroke-width="1.5" fill="none">
    <path d="M70 250 h60 v-40 h40"/><path d="M70 90 h40 v40 h50"/>
    <circle cx="70" cy="250" r="4" fill="#22d3ee" class="twk"/>
    <circle cx="170" cy="210" r="4" fill="#22d3ee" class="twk2"/>
    <circle cx="70" cy="90" r="4" fill="#22d3ee" class="twk3"/>
  </g>

  <!-- rotating DNA double helix -->
  <g clip-path="url(#dnaClip)">
    <g transform="translate(1050,0)"><g class="dna"><path d="M0.0,-260 L4.3,-257 L8.6,-254 L12.6,-251 L16.4,-248 L19.9,-245 L22.9,-242 L25.5,-239 L27.5,-236 L28.9,-233 L29.8,-230 L30.0,-227 L29.6,-224 L28.5,-221 L26.9,-218 L24.7,-215 L22.0,-212 L18.8,-209 L15.2,-206 L11.3,-203 L7.2,-200 L2.9,-197 L-1.4,-194 L-5.8,-191 L-10.0,-188 L-13.9,-185 L-17.6,-182 L-21.0,-179 L-23.8,-176 L-26.2,-173 L-28.1,-170 L-29.3,-167 L-29.9,-164 L-29.9,-161 L-29.3,-158 L-28.1,-155 L-26.2,-152 L-23.8,-149 L-21.0,-146 L-17.6,-143 L-13.9,-140 L-10.0,-137 L-5.8,-134 L-1.4,-131 L2.9,-128 L7.2,-125 L11.3,-122 L15.2,-119 L18.8,-116 L22.0,-113 L24.7,-110 L26.9,-107 L28.5,-104 L29.6,-101 L30.0,-98 L29.8,-95 L28.9,-92 L27.5,-89 L25.5,-86 L22.9,-83 L19.9,-80 L16.4,-77 L12.6,-74 L8.6,-71 L4.3,-68 L-0.0,-65 L-4.3,-62 L-8.6,-59 L-12.6,-56 L-16.4,-53 L-19.9,-50 L-22.9,-47 L-25.5,-44 L-27.5,-41 L-28.9,-38 L-29.8,-35 L-30.0,-32 L-29.6,-29 L-28.5,-26 L-26.9,-23 L-24.7,-20 L-22.0,-17 L-18.8,-14 L-15.2,-11 L-11.3,-8 L-7.2,-5 L-2.9,-2 L1.4,1 L5.8,4 L10.0,7 L13.9,10 L17.6,13 L21.0,16 L23.8,19 L26.2,22 L28.1,25 L29.3,28 L29.9,31 L29.9,34 L29.3,37 L28.1,40 L26.2,43 L23.8,46 L21.0,49 L17.6,52 L13.9,55 L10.0,58 L5.8,61 L1.4,64 L-2.9,67 L-7.2,70 L-11.3,73 L-15.2,76 L-18.8,79 L-22.0,82 L-24.7,85 L-26.9,88 L-28.5,91 L-29.6,94 L-30.0,97 L-29.8,100 L-28.9,103 L-27.5,106 L-25.5,109 L-22.9,112 L-19.9,115 L-16.4,118 L-12.6,121 L-8.6,124 L-4.3,127 L-0.0,130 L4.3,133 L8.6,136 L12.6,139 L16.4,142 L19.9,145 L22.9,148 L25.5,151 L27.5,154 L28.9,157 L29.8,160 L30.0,163 L29.6,166 L28.5,169 L26.9,172 L24.7,175 L22.0,178 L18.8,181 L15.2,184 L11.3,187 L7.2,190 L2.9,193 L-1.4,196 L-5.8,199 L-10.0,202 L-13.9,205 L-17.6,208 L-21.0,211 L-23.8,214 L-26.2,217 L-28.1,220 L-29.3,223 L-29.9,226 L-29.9,229 L-29.3,232 L-28.1,235 L-26.2,238 L-23.8,241 L-21.0,244 L-17.6,247 L-13.9,250 L-10.0,253 L-5.8,256 L-1.4,259 L2.9,262 L7.2,265 L11.3,268 L15.2,271 L18.8,274 L22.0,277 L24.7,280 L26.9,283 L28.5,286 L29.6,289 L30.0,292 L29.8,295 L28.9,298 L27.5,301 L25.5,304 L22.9,307 L19.9,310 L16.4,313 L12.6,316 L8.6,319 L4.3,322 L0.0,325 L-4.3,328 L-8.6,331 L-12.6,334 L-16.4,337 L-19.9,340 L-22.9,343 L-25.5,346 L-27.5,349 L-28.9,352 L-29.8,355 L-30.0,358 L-29.6,361 L-28.5,364 L-26.9,367 L-24.7,370 L-22.0,373 L-18.8,376 L-15.2,379 L-11.3,382 L-7.2,385 L-2.9,388 L1.4,391 L5.8,394 L10.0,397 L13.9,400 L17.6,403 L21.0,406 L23.8,409 L26.2,412 L28.1,415 L29.3,418 L29.9,421 L29.9,424 L29.3,427 L28.1,430 L26.2,433 L23.8,436 L21.0,439 L17.6,442 L13.9,445 L10.0,448 L5.8,451 L1.4,454 L-2.9,457 L-7.2,460 L-11.3,463 L-15.2,466 L-18.8,469 L-22.0,472 L-24.7,475 L-26.9,478 L-28.5,481 L-29.6,484 L-30.0,487 L-29.8,490 L-28.9,493 L-27.5,496 L-25.5,499 L-22.9,502 L-19.9,505 L-16.4,508 L-12.6,511 L-8.6,514 L-4.3,517 L-0.0,520 L4.3,523 L8.6,526 L12.6,529 L16.4,532 L19.9,535 L22.9,538 L25.5,541 L27.5,544 L28.9,547 L29.8,550 L30.0,553 L29.6,556 L28.5,559" fill="none" stroke="#22d3ee" stroke-width="3.5" stroke-linecap="round"/><path d="M-0.0,-260 L-4.3,-257 L-8.6,-254 L-12.6,-251 L-16.4,-248 L-19.9,-245 L-22.9,-242 L-25.5,-239 L-27.5,-236 L-28.9,-233 L-29.8,-230 L-30.0,-227 L-29.6,-224 L-28.5,-221 L-26.9,-218 L-24.7,-215 L-22.0,-212 L-18.8,-209 L-15.2,-206 L-11.3,-203 L-7.2,-200 L-2.9,-197 L1.4,-194 L5.8,-191 L10.0,-188 L13.9,-185 L17.6,-182 L21.0,-179 L23.8,-176 L26.2,-173 L28.1,-170 L29.3,-167 L29.9,-164 L29.9,-161 L29.3,-158 L28.1,-155 L26.2,-152 L23.8,-149 L21.0,-146 L17.6,-143 L13.9,-140 L10.0,-137 L5.8,-134 L1.4,-131 L-2.9,-128 L-7.2,-125 L-11.3,-122 L-15.2,-119 L-18.8,-116 L-22.0,-113 L-24.7,-110 L-26.9,-107 L-28.5,-104 L-29.6,-101 L-30.0,-98 L-29.8,-95 L-28.9,-92 L-27.5,-89 L-25.5,-86 L-22.9,-83 L-19.9,-80 L-16.4,-77 L-12.6,-74 L-8.6,-71 L-4.3,-68 L0.0,-65 L4.3,-62 L8.6,-59 L12.6,-56 L16.4,-53 L19.9,-50 L22.9,-47 L25.5,-44 L27.5,-41 L28.9,-38 L29.8,-35 L30.0,-32 L29.6,-29 L28.5,-26 L26.9,-23 L24.7,-20 L22.0,-17 L18.8,-14 L15.2,-11 L11.3,-8 L7.2,-5 L2.9,-2 L-1.4,1 L-5.8,4 L-10.0,7 L-13.9,10 L-17.6,13 L-21.0,16 L-23.8,19 L-26.2,22 L-28.1,25 L-29.3,28 L-29.9,31 L-29.9,34 L-29.3,37 L-28.1,40 L-26.2,43 L-23.8,46 L-21.0,49 L-17.6,52 L-13.9,55 L-10.0,58 L-5.8,61 L-1.4,64 L2.9,67 L7.2,70 L11.3,73 L15.2,76 L18.8,79 L22.0,82 L24.7,85 L26.9,88 L28.5,91 L29.6,94 L30.0,97 L29.8,100 L28.9,103 L27.5,106 L25.5,109 L22.9,112 L19.9,115 L16.4,118 L12.6,121 L8.6,124 L4.3,127 L0.0,130 L-4.3,133 L-8.6,136 L-12.6,139 L-16.4,142 L-19.9,145 L-22.9,148 L-25.5,151 L-27.5,154 L-28.9,157 L-29.8,160 L-30.0,163 L-29.6,166 L-28.5,169 L-26.9,172 L-24.7,175 L-22.0,178 L-18.8,181 L-15.2,184 L-11.3,187 L-7.2,190 L-2.9,193 L1.4,196 L5.8,199 L10.0,202 L13.9,205 L17.6,208 L21.0,211 L23.8,214 L26.2,217 L28.1,220 L29.3,223 L29.9,226 L29.9,229 L29.3,232 L28.1,235 L26.2,238 L23.8,241 L21.0,244 L17.6,247 L13.9,250 L10.0,253 L5.8,256 L1.4,259 L-2.9,262 L-7.2,265 L-11.3,268 L-15.2,271 L-18.8,274 L-22.0,277 L-24.7,280 L-26.9,283 L-28.5,286 L-29.6,289 L-30.0,292 L-29.8,295 L-28.9,298 L-27.5,301 L-25.5,304 L-22.9,307 L-19.9,310 L-16.4,313 L-12.6,316 L-8.6,319 L-4.3,322 L-0.0,325 L4.3,328 L8.6,331 L12.6,334 L16.4,337 L19.9,340 L22.9,343 L25.5,346 L27.5,349 L28.9,352 L29.8,355 L30.0,358 L29.6,361 L28.5,364 L26.9,367 L24.7,370 L22.0,373 L18.8,376 L15.2,379 L11.3,382 L7.2,385 L2.9,388 L-1.4,391 L-5.8,394 L-10.0,397 L-13.9,400 L-17.6,403 L-21.0,406 L-23.8,409 L-26.2,412 L-28.1,415 L-29.3,418 L-29.9,421 L-29.9,424 L-29.3,427 L-28.1,430 L-26.2,433 L-23.8,436 L-21.0,439 L-17.6,442 L-13.9,445 L-10.0,448 L-5.8,451 L-1.4,454 L2.9,457 L7.2,460 L11.3,463 L15.2,466 L18.8,469 L22.0,472 L24.7,475 L26.9,478 L28.5,481 L29.6,484 L30.0,487 L29.8,490 L28.9,493 L27.5,496 L25.5,499 L22.9,502 L19.9,505 L16.4,508 L12.6,511 L8.6,514 L4.3,517 L0.0,520 L-4.3,523 L-8.6,526 L-12.6,529 L-16.4,532 L-19.9,535 L-22.9,538 L-25.5,541 L-27.5,544 L-28.9,547 L-29.8,550 L-30.0,553 L-29.6,556 L-28.5,559" fill="none" stroke="#5eead4" stroke-width="3.5" stroke-linecap="round"/><line x1="0.0" y1="-260" x2="-0.0" y2="-260" stroke="#22d3ee" stroke-opacity="0.18" stroke-width="1.6"/><circle cx="0.0" cy="-260" r="2.0" fill="#a5f3fc" fill-opacity="0.18"/><circle cx="-0.0" cy="-260" r="2.0" fill="#2dd4bf" fill-opacity="0.18"/><line x1="24.7" y1="-240" x2="-24.7" y2="-240" stroke="#22d3ee" stroke-opacity="0.77" stroke-width="3.6"/><circle cx="24.7" cy="-240" r="3.8" fill="#a5f3fc" fill-opacity="0.77"/><circle cx="-24.7" cy="-240" r="3.8" fill="#2dd4bf" fill-opacity="0.77"/><line x1="28.1" y1="-220" x2="-28.1" y2="-220" stroke="#22d3ee" stroke-opacity="0.85" stroke-width="3.8"/><circle cx="28.1" cy="-220" r="4.1" fill="#a5f3fc" fill-opacity="0.85"/><circle cx="-28.1" cy="-220" r="4.1" fill="#2dd4bf" fill-opacity="0.85"/><line x1="7.2" y1="-200" x2="-7.2" y2="-200" stroke="#22d3ee" stroke-opacity="0.35" stroke-width="2.2"/><circle cx="7.2" cy="-200" r="2.5" fill="#a5f3fc" fill-opacity="0.35"/><circle cx="-7.2" cy="-200" r="2.5" fill="#2dd4bf" fill-opacity="0.35"/><line x1="-19.9" y1="-180" x2="19.9" y2="-180" stroke="#67e8f9" stroke-opacity="0.66" stroke-width="3.2"/><circle cx="-19.9" cy="-180" r="3.5" fill="#a5f3fc" fill-opacity="0.66"/><circle cx="19.9" cy="-180" r="3.5" fill="#2dd4bf" fill-opacity="0.66"/><line x1="-29.8" y1="-160" x2="29.8" y2="-160" stroke="#67e8f9" stroke-opacity="0.89" stroke-width="4.0"/><circle cx="-29.8" cy="-160" r="4.2" fill="#a5f3fc" fill-opacity="0.89"/><circle cx="29.8" cy="-160" r="4.2" fill="#2dd4bf" fill-opacity="0.89"/><line x1="-13.9" y1="-140" x2="13.9" y2="-140" stroke="#67e8f9" stroke-opacity="0.51" stroke-width="2.7"/><circle cx="-13.9" cy="-140" r="3.0" fill="#a5f3fc" fill-opacity="0.51"/><circle cx="13.9" cy="-140" r="3.0" fill="#2dd4bf" fill-opacity="0.51"/><line x1="13.9" y1="-120" x2="-13.9" y2="-120" stroke="#22d3ee" stroke-opacity="0.51" stroke-width="2.7"/><circle cx="13.9" cy="-120" r="3.0" fill="#a5f3fc" fill-opacity="0.51"/><circle cx="-13.9" cy="-120" r="3.0" fill="#2dd4bf" fill-opacity="0.51"/><line x1="29.8" y1="-100" x2="-29.8" y2="-100" stroke="#22d3ee" stroke-opacity="0.89" stroke-width="4.0"/><circle cx="29.8" cy="-100" r="4.2" fill="#a5f3fc" fill-opacity="0.89"/><circle cx="-29.8" cy="-100" r="4.2" fill="#2dd4bf" fill-opacity="0.89"/><line x1="19.9" y1="-80" x2="-19.9" y2="-80" stroke="#22d3ee" stroke-opacity="0.66" stroke-width="3.2"/><circle cx="19.9" cy="-80" r="3.5" fill="#a5f3fc" fill-opacity="0.66"/><circle cx="-19.9" cy="-80" r="3.5" fill="#2dd4bf" fill-opacity="0.66"/><line x1="-7.2" y1="-60" x2="7.2" y2="-60" stroke="#67e8f9" stroke-opacity="0.35" stroke-width="2.2"/><circle cx="-7.2" cy="-60" r="2.5" fill="#a5f3fc" fill-opacity="0.35"/><circle cx="7.2" cy="-60" r="2.5" fill="#2dd4bf" fill-opacity="0.35"/><line x1="-28.1" y1="-40" x2="28.1" y2="-40" stroke="#67e8f9" stroke-opacity="0.85" stroke-width="3.8"/><circle cx="-28.1" cy="-40" r="4.1" fill="#a5f3fc" fill-opacity="0.85"/><circle cx="28.1" cy="-40" r="4.1" fill="#2dd4bf" fill-opacity="0.85"/><line x1="-24.7" y1="-20" x2="24.7" y2="-20" stroke="#67e8f9" stroke-opacity="0.77" stroke-width="3.6"/><circle cx="-24.7" cy="-20" r="3.8" fill="#a5f3fc" fill-opacity="0.77"/><circle cx="24.7" cy="-20" r="3.8" fill="#2dd4bf" fill-opacity="0.77"/><line x1="0.0" y1="0" x2="0.0" y2="0" stroke="#22d3ee" stroke-opacity="0.18" stroke-width="1.6"/><circle cx="0.0" cy="0" r="2.0" fill="#a5f3fc" fill-opacity="0.18"/><circle cx="0.0" cy="0" r="2.0" fill="#2dd4bf" fill-opacity="0.18"/><line x1="24.7" y1="20" x2="-24.7" y2="20" stroke="#22d3ee" stroke-opacity="0.77" stroke-width="3.6"/><circle cx="24.7" cy="20" r="3.8" fill="#a5f3fc" fill-opacity="0.77"/><circle cx="-24.7" cy="20" r="3.8" fill="#2dd4bf" fill-opacity="0.77"/><line x1="28.1" y1="40" x2="-28.1" y2="40" stroke="#22d3ee" stroke-opacity="0.85" stroke-width="3.8"/><circle cx="28.1" cy="40" r="4.1" fill="#a5f3fc" fill-opacity="0.85"/><circle cx="-28.1" cy="40" r="4.1" fill="#2dd4bf" fill-opacity="0.85"/><line x1="7.2" y1="60" x2="-7.2" y2="60" stroke="#22d3ee" stroke-opacity="0.35" stroke-width="2.2"/><circle cx="7.2" cy="60" r="2.5" fill="#a5f3fc" fill-opacity="0.35"/><circle cx="-7.2" cy="60" r="2.5" fill="#2dd4bf" fill-opacity="0.35"/><line x1="-19.9" y1="80" x2="19.9" y2="80" stroke="#67e8f9" stroke-opacity="0.66" stroke-width="3.2"/><circle cx="-19.9" cy="80" r="3.5" fill="#a5f3fc" fill-opacity="0.66"/><circle cx="19.9" cy="80" r="3.5" fill="#2dd4bf" fill-opacity="0.66"/><line x1="-29.8" y1="100" x2="29.8" y2="100" stroke="#67e8f9" stroke-opacity="0.89" stroke-width="4.0"/><circle cx="-29.8" cy="100" r="4.2" fill="#a5f3fc" fill-opacity="0.89"/><circle cx="29.8" cy="100" r="4.2" fill="#2dd4bf" fill-opacity="0.89"/><line x1="-13.9" y1="120" x2="13.9" y2="120" stroke="#67e8f9" stroke-opacity="0.51" stroke-width="2.7"/><circle cx="-13.9" cy="120" r="3.0" fill="#a5f3fc" fill-opacity="0.51"/><circle cx="13.9" cy="120" r="3.0" fill="#2dd4bf" fill-opacity="0.51"/><line x1="13.9" y1="140" x2="-13.9" y2="140" stroke="#22d3ee" stroke-opacity="0.51" stroke-width="2.7"/><circle cx="13.9" cy="140" r="3.0" fill="#a5f3fc" fill-opacity="0.51"/><circle cx="-13.9" cy="140" r="3.0" fill="#2dd4bf" fill-opacity="0.51"/><line x1="29.8" y1="160" x2="-29.8" y2="160" stroke="#22d3ee" stroke-opacity="0.89" stroke-width="4.0"/><circle cx="29.8" cy="160" r="4.2" fill="#a5f3fc" fill-opacity="0.89"/><circle cx="-29.8" cy="160" r="4.2" fill="#2dd4bf" fill-opacity="0.89"/><line x1="19.9" y1="180" x2="-19.9" y2="180" stroke="#22d3ee" stroke-opacity="0.66" stroke-width="3.2"/><circle cx="19.9" cy="180" r="3.5" fill="#a5f3fc" fill-opacity="0.66"/><circle cx="-19.9" cy="180" r="3.5" fill="#2dd4bf" fill-opacity="0.66"/><line x1="-7.2" y1="200" x2="7.2" y2="200" stroke="#67e8f9" stroke-opacity="0.35" stroke-width="2.2"/><circle cx="-7.2" cy="200" r="2.5" fill="#a5f3fc" fill-opacity="0.35"/><circle cx="7.2" cy="200" r="2.5" fill="#2dd4bf" fill-opacity="0.35"/><line x1="-28.1" y1="220" x2="28.1" y2="220" stroke="#67e8f9" stroke-opacity="0.85" stroke-width="3.8"/><circle cx="-28.1" cy="220" r="4.1" fill="#a5f3fc" fill-opacity="0.85"/><circle cx="28.1" cy="220" r="4.1" fill="#2dd4bf" fill-opacity="0.85"/><line x1="-24.7" y1="240" x2="24.7" y2="240" stroke="#67e8f9" stroke-opacity="0.77" stroke-width="3.6"/><circle cx="-24.7" cy="240" r="3.8" fill="#a5f3fc" fill-opacity="0.77"/><circle cx="24.7" cy="240" r="3.8" fill="#2dd4bf" fill-opacity="0.77"/><line x1="-0.0" y1="260" x2="0.0" y2="260" stroke="#67e8f9" stroke-opacity="0.18" stroke-width="1.6"/><circle cx="-0.0" cy="260" r="2.0" fill="#a5f3fc" fill-opacity="0.18"/><circle cx="0.0" cy="260" r="2.0" fill="#2dd4bf" fill-opacity="0.18"/><line x1="24.7" y1="280" x2="-24.7" y2="280" stroke="#22d3ee" stroke-opacity="0.77" stroke-width="3.6"/><circle cx="24.7" cy="280" r="3.8" fill="#a5f3fc" fill-opacity="0.77"/><circle cx="-24.7" cy="280" r="3.8" fill="#2dd4bf" fill-opacity="0.77"/><line x1="28.1" y1="300" x2="-28.1" y2="300" stroke="#22d3ee" stroke-opacity="0.85" stroke-width="3.8"/><circle cx="28.1" cy="300" r="4.1" fill="#a5f3fc" fill-opacity="0.85"/><circle cx="-28.1" cy="300" r="4.1" fill="#2dd4bf" fill-opacity="0.85"/><line x1="7.2" y1="320" x2="-7.2" y2="320" stroke="#22d3ee" stroke-opacity="0.35" stroke-width="2.2"/><circle cx="7.2" cy="320" r="2.5" fill="#a5f3fc" fill-opacity="0.35"/><circle cx="-7.2" cy="320" r="2.5" fill="#2dd4bf" fill-opacity="0.35"/><line x1="-19.9" y1="340" x2="19.9" y2="340" stroke="#67e8f9" stroke-opacity="0.66" stroke-width="3.2"/><circle cx="-19.9" cy="340" r="3.5" fill="#a5f3fc" fill-opacity="0.66"/><circle cx="19.9" cy="340" r="3.5" fill="#2dd4bf" fill-opacity="0.66"/><line x1="-29.8" y1="360" x2="29.8" y2="360" stroke="#67e8f9" stroke-opacity="0.89" stroke-width="4.0"/><circle cx="-29.8" cy="360" r="4.2" fill="#a5f3fc" fill-opacity="0.89"/><circle cx="29.8" cy="360" r="4.2" fill="#2dd4bf" fill-opacity="0.89"/><line x1="-13.9" y1="380" x2="13.9" y2="380" stroke="#67e8f9" stroke-opacity="0.51" stroke-width="2.7"/><circle cx="-13.9" cy="380" r="3.0" fill="#a5f3fc" fill-opacity="0.51"/><circle cx="13.9" cy="380" r="3.0" fill="#2dd4bf" fill-opacity="0.51"/><line x1="13.9" y1="400" x2="-13.9" y2="400" stroke="#22d3ee" stroke-opacity="0.51" stroke-width="2.7"/><circle cx="13.9" cy="400" r="3.0" fill="#a5f3fc" fill-opacity="0.51"/><circle cx="-13.9" cy="400" r="3.0" fill="#2dd4bf" fill-opacity="0.51"/><line x1="29.8" y1="420" x2="-29.8" y2="420" stroke="#22d3ee" stroke-opacity="0.89" stroke-width="4.0"/><circle cx="29.8" cy="420" r="4.2" fill="#a5f3fc" fill-opacity="0.89"/><circle cx="-29.8" cy="420" r="4.2" fill="#2dd4bf" fill-opacity="0.89"/><line x1="19.9" y1="440" x2="-19.9" y2="440" stroke="#22d3ee" stroke-opacity="0.66" stroke-width="3.2"/><circle cx="19.9" cy="440" r="3.5" fill="#a5f3fc" fill-opacity="0.66"/><circle cx="-19.9" cy="440" r="3.5" fill="#2dd4bf" fill-opacity="0.66"/><line x1="-7.2" y1="460" x2="7.2" y2="460" stroke="#67e8f9" stroke-opacity="0.35" stroke-width="2.2"/><circle cx="-7.2" cy="460" r="2.5" fill="#a5f3fc" fill-opacity="0.35"/><circle cx="7.2" cy="460" r="2.5" fill="#2dd4bf" fill-opacity="0.35"/><line x1="-28.1" y1="480" x2="28.1" y2="480" stroke="#67e8f9" stroke-opacity="0.85" stroke-width="3.8"/><circle cx="-28.1" cy="480" r="4.1" fill="#a5f3fc" fill-opacity="0.85"/><circle cx="28.1" cy="480" r="4.1" fill="#2dd4bf" fill-opacity="0.85"/><line x1="-24.7" y1="500" x2="24.7" y2="500" stroke="#67e8f9" stroke-opacity="0.77" stroke-width="3.6"/><circle cx="-24.7" cy="500" r="3.8" fill="#a5f3fc" fill-opacity="0.77"/><circle cx="24.7" cy="500" r="3.8" fill="#2dd4bf" fill-opacity="0.77"/><line x1="-0.0" y1="520" x2="0.0" y2="520" stroke="#67e8f9" stroke-opacity="0.18" stroke-width="1.6"/><circle cx="-0.0" cy="520" r="2.0" fill="#a5f3fc" fill-opacity="0.18"/><circle cx="0.0" cy="520" r="2.0" fill="#2dd4bf" fill-opacity="0.18"/><line x1="24.7" y1="540" x2="-24.7" y2="540" stroke="#22d3ee" stroke-opacity="0.77" stroke-width="3.6"/><circle cx="24.7" cy="540" r="3.8" fill="#a5f3fc" fill-opacity="0.77"/><circle cx="-24.7" cy="540" r="3.8" fill="#2dd4bf" fill-opacity="0.77"/><line x1="28.1" y1="560" x2="-28.1" y2="560" stroke="#22d3ee" stroke-opacity="0.85" stroke-width="3.8"/><circle cx="28.1" cy="560" r="4.1" fill="#a5f3fc" fill-opacity="0.85"/><circle cx="-28.1" cy="560" r="4.1" fill="#2dd4bf" fill-opacity="0.85"/></g></g>
  </g>

  <!-- ECG biosignal -->
  <path stroke="url(#line)" stroke-opacity="0.5" stroke-width="2" fill="none" stroke-linecap="round" stroke-linejoin="round"
        d="M40 300 H320 l18 0 22 -46 20 92 24 -128 20 128 26 -46 H700 l16 0 20 -34 18 60 20 -84 18 84 22 -26 H1160"/>
  <path class="pulse" filter="url(#soft)" stroke="#a5f3fc" stroke-width="3" fill="none" stroke-linecap="round" stroke-linejoin="round"
        d="M40 300 H320 l18 0 22 -46 20 92 24 -128 20 128 26 -46 H700 l16 0 20 -34 18 60 20 -84 18 84 22 -26 H1160"/>

  <g class="rise">
    <text x="600" y="150" text-anchor="middle" font-family="'Segoe UI',Verdana,Arial,sans-serif" font-size="62" font-weight="800" letter-spacing="6" fill="url(#cyanText)">BIPIN VISHWAKARMA</text>
    <text x="600" y="192" text-anchor="middle" font-family="'Consolas','Courier New',monospace" font-size="18" font-weight="600" letter-spacing="7" fill="#5eead4">BIOMEDICAL  &#183;  EMBEDDED HARDWARE  &#183;  AI</text>
  </g>
  <rect x="470" y="210" width="260" height="3" rx="2" fill="#22d3ee" class="twk"/>
</svg>
