<svg xmlns="http://www.w3.org/2000/svg" viewBox="0 0 40 40" width="40" height="40" fill="none"><style>.rot{animation:rot 6s linear infinite;transform-origin:20px 20px}@keyframes rot{to{transform:rotate(360deg)}}</style><g class="rot"><rect x="19" y="3" width="2" height="5" rx="1" fill="#22d3ee" transform="rotate(0 20 20)"/><rect x="19" y="3" width="2" height="5" rx="1" fill="#22d3ee" transform="rotate(45 20 20)"/><rect x="19" y="3" width="2" height="5" rx="1" fill="#22d3ee" transform="rotate(90 20 20)"/><rect x="19" y="3" width="2" height="5" rx="1" fill="#22d3ee" transform="rotate(135 20 20)"/><rect x="19" y="3" width="2" height="5" rx="1" fill="#22d3ee" transform="rotate(180 20 20)"/><rect x="19" y="3" width="2" height="5" rx="1" fill="#22d3ee" transform="rotate(225 20 20)"/><rect x="19" y="3" width="2" height="5" rx="1" fill="#22d3ee" transform="rotate(270 20 20)"/><rect x="19" y="3" width="2" height="5" rx="1" fill="#22d3ee" transform="rotate(315 20 20)"/><circle cx="20" cy="20" r="10" fill="none" stroke="#22d3ee" stroke-width="2"/><circle cx="20" cy="20" r="3.5" fill="none" stroke="#22d3ee" stroke-width="2"/></g></svg>