<svg xmlns="http://www.w3.org/2000/svg" viewBox="0 0 40 40" width="40" height="40" fill="none"><style>.sc{animation:sc 2.6s linear infinite}@keyframes sc{from{transform:translateY(0)}to{transform:translateY(-18px)}}</style><clipPath id="dc"><rect x="6" y="3" width="28" height="34" rx="4"/></clipPath><g clip-path="url(#dc)"><g class="sc"><path d="M13.1,-22 L15.5,-20 L20.0,-18 L24.5,-16 L26.9,-14 L26.1,-12 L22.4,-10 L17.6,-8 L13.9,-6 L13.1,-4 L15.5,-2 L20.0,0 L24.5,2 L26.9,4 L26.1,6 L22.4,8 L17.6,10 L13.9,12 L13.1,14 L15.5,16 L20.0,18 L24.5,20 L26.9,22 L26.1,24 L22.4,26 L17.6,28 L13.9,30 L13.1,32 L15.5,34 L20.0,36 L24.5,38 L26.9,40 L26.1,42 L22.4,44 L17.6,46 L13.9,48 L13.1,50 L15.5,52 L20.0,54 L24.5,56 L26.9,58 L26.1,60 L22.4,62" stroke="#22d3ee" stroke-width="2" fill="none"/><path d="M26.9,-22 L24.5,-20 L20.0,-18 L15.5,-16 L13.1,-14 L13.9,-12 L17.6,-10 L22.4,-8 L26.1,-6 L26.9,-4 L24.5,-2 L20.0,0 L15.5,2 L13.1,4 L13.9,6 L17.6,8 L22.4,10 L26.1,12 L26.9,14 L24.5,16 L20.0,18 L15.5,20 L13.1,22 L13.9,24 L17.6,26 L22.4,28 L26.1,30 L26.9,32 L24.5,34 L20.0,36 L15.5,38 L13.1,40 L13.9,42 L17.6,44 L22.4,46 L26.1,48 L26.9,50 L24.5,52 L20.0,54 L15.5,56 L13.1,58 L13.9,60 L17.6,62" stroke="#67e8f9" stroke-width="2" fill="none"/><line x1="13.1" y1="-22" x2="26.9" y2="-22" stroke="#22d3ee" stroke-opacity="0.84" stroke-width="1.4"/><line x1="24.5" y1="-16" x2="15.5" y2="-16" stroke="#22d3ee" stroke-opacity="0.64" stroke-width="1.4"/><line x1="22.4" y1="-10" x2="17.6" y2="-10" stroke="#22d3ee" stroke-opacity="0.46" stroke-width="1.4"/><line x1="13.1" y1="-4" x2="26.9" y2="-4" stroke="#22d3ee" stroke-opacity="0.84" stroke-width="1.4"/><line x1="24.5" y1="2" x2="15.5" y2="2" stroke="#22d3ee" stroke-opacity="0.64" stroke-width="1.4"/><line x1="22.4" y1="8" x2="17.6" y2="8" stroke="#22d3ee" stroke-opacity="0.46" stroke-width="1.4"/><line x1="13.1" y1="14" x2="26.9" y2="14" stroke="#22d3ee" stroke-opacity="0.84" stroke-width="1.4"/><line x1="24.5" y1="20" x2="15.5" y2="20" stroke="#22d3ee" stroke-opacity="0.64" stroke-width="1.4"/><line x1="22.4" y1="26" x2="17.6" y2="26" stroke="#22d3ee" stroke-opacity="0.46" stroke-width="1.4"/><line x1="13.1" y1="32" x2="26.9" y2="32" stroke="#22d3ee" stroke-opacity="0.84" stroke-width="1.4"/><line x1="24.5" y1="38" x2="15.5" y2="38" stroke="#22d3ee" stroke-opacity="0.64" stroke-width="1.4"/><line x1="22.4" y1="44" x2="17.6" y2="44" stroke="#22d3ee" stroke-opacity="0.46" stroke-width="1.4"/><line x1="13.1" y1="50" x2="26.9" y2="50" stroke="#22d3ee" stroke-opacity="0.84" stroke-width="1.4"/><line x1="24.5" y1="56" x2="15.5" y2="56" stroke="#22d3ee" stroke-opacity="0.64" stroke-width="1.4"/><line x1="22.4" y1="62" x2="17.6" y2="62" stroke="#22d3ee" stroke-opacity="0.46" stroke-width="1.4"/></g></g></svg>