<svg xmlns="http://www.w3.org/2000/svg" viewBox="0 0 1040 600" width="1040" height="600" fill="none" role="img" aria-label="Tech stack and skills">
  <defs>
    <linearGradient id="tbg" x1="0" y1="0" x2="1040" y2="600" gradientUnits="userSpaceOnUse">
      <stop offset="0" stop-color="#04070a"/><stop offset="0.55" stop-color="#06171b"/><stop offset="1" stop-color="#0a2b30"/>
    </linearGradient>
  </defs>
  <rect width="1040" height="600" rx="16" fill="url(#tbg)"/>
  <g stroke="#22d3ee" stroke-opacity="0.05" stroke-width="1"><path d="M0 80 H1040 M355 0 V472 M685 0 V472"/></g>
  <g transform="translate(42,30)"><g transform="translate(0,0)" stroke="#22d3ee" stroke-width="2" fill="none">
          <rect x="4" y="4" width="20" height="20" rx="3" fill="#0b2b31"/>
          <path d="M4 10 H-1 M4 18 H-1 M24 10 H29 M24 18 H29 M10 4 V-1 M18 4 V-1 M10 24 V29 M18 24 V29"/></g></g><text x="80" y="50" font-family="'Segoe UI',Verdana,Arial,sans-serif" font-weight="800" font-size="18" letter-spacing="0.5" fill="#e6fbff">Hardware &amp; Embedded</text><rect x="80" y="60" width="150" height="3" rx="2" fill="#22d3ee"><animate attributeName="opacity" values="0.4;1;0.4" dur="3s" repeatCount="indefinite"/></rect><rect x="40" y="96" width="270" height="38" rx="9" fill="#0b2b31" stroke="#22d3ee" stroke-opacity="0.42" stroke-width="1"/><circle cx="56" cy="115" r="2.5" fill="#22d3ee"><animate attributeName="opacity" values="0.35;1;0.35" dur="2.5s" repeatCount="indefinite"/></circle><text x="70" y="120" font-family="'Consolas','Courier New',monospace" font-weight="600" font-size="14" fill="#a5f3fc">Arduino</text><rect x="40" y="142" width="270" height="38" rx="9" fill="#0b2b31" stroke="#22d3ee" stroke-opacity="0.42" stroke-width="1"/><circle cx="56" cy="161" r="2.5" fill="#22d3ee"><animate attributeName="opacity" values="0.35;1;0.35" dur="2.7s" repeatCount="indefinite"/></circle><text x="70" y="166" font-family="'Consolas','Courier New',monospace" font-weight="600" font-size="14" fill="#a5f3fc">ESP32 · ESP32-S3</text><rect x="40" y="188" width="270" height="38" rx="9" fill="#0b2b31" stroke="#22d3ee" stroke-opacity="0.42" stroke-width="1"/><circle cx="56" cy="207" r="2.5" fill="#22d3ee"><animate attributeName="opacity" values="0.35;1;0.35" dur="2.9s" repeatCount="indefinite"/></circle><text x="70" y="212" font-family="'Consolas','Courier New',monospace" font-weight="600" font-size="14" fill="#a5f3fc">KiCad</text><rect x="40" y="234" width="270" height="38" rx="9" fill="#0b2b31" stroke="#22d3ee" stroke-opacity="0.42" stroke-width="1"/><circle cx="56" cy="253" r="2.5" fill="#22d3ee"><animate attributeName="opacity" values="0.35;1;0.35" dur="3.1s" repeatCount="indefinite"/></circle><text x="70" y="258" font-family="'Consolas','Courier New',monospace" font-weight="600" font-size="14" fill="#a5f3fc">PCB Design</text><rect x="40" y="280" width="270" height="38" rx="9" fill="#0b2b31" stroke="#22d3ee" stroke-opacity="0.42" stroke-width="1"/><circle cx="56" cy="299" r="2.5" fill="#22d3ee"><animate attributeName="opacity" values="0.35;1;0.35" dur="3.3s" repeatCount="indefinite"/></circle><text x="70" y="304" font-family="'Consolas','Courier New',monospace" font-weight="600" font-size="14" fill="#a5f3fc">SMD Soldering</text><rect x="40" y="326" width="270" height="38" rx="9" fill="#0b2b31" stroke="#22d3ee" stroke-opacity="0.42" stroke-width="1"/><circle cx="56" cy="345" r="2.5" fill="#22d3ee"><animate attributeName="opacity" values="0.35;1;0.35" dur="3.5s" repeatCount="indefinite"/></circle><text x="70" y="350" font-family="'Consolas','Courier New',monospace" font-weight="600" font-size="14" fill="#a5f3fc">IoT &amp; Sensors</text><rect x="40" y="372" width="270" height="38" rx="9" fill="#0b2b31" stroke="#22d3ee" stroke-opacity="0.42" stroke-width="1"/><circle cx="56" cy="391" r="2.5" fill="#22d3ee"><animate attributeName="opacity" values="0.35;1;0.35" dur="3.7s" repeatCount="indefinite"/></circle><text x="70" y="396" font-family="'Consolas','Courier New',monospace" font-weight="600" font-size="14" fill="#a5f3fc">SolidWorks</text><rect x="40" y="418" width="270" height="38" rx="9" fill="#0b2b31" stroke="#22d3ee" stroke-opacity="0.42" stroke-width="1"/><circle cx="56" cy="437" r="2.5" fill="#22d3ee"><animate attributeName="opacity" values="0.35;1;0.35" dur="3.9s" repeatCount="indefinite"/></circle><text x="70" y="442" font-family="'Consolas','Courier New',monospace" font-weight="600" font-size="14" fill="#a5f3fc">3D Printing</text><g transform="translate(372,30)"><g stroke="#8b5cf6" stroke-width="2">
          <line x1="4" y1="6" x2="14" y2="14" stroke-opacity=".6"/><line x1="4" y1="22" x2="14" y2="14" stroke-opacity=".6"/>
          <line x1="14" y1="14" x2="24" y2="6" stroke-opacity=".6"/><line x1="14" y1="14" x2="24" y2="22" stroke-opacity=".6"/>
          <circle cx="4" cy="6" r="3" fill="#8b5cf6"/><circle cx="4" cy="22" r="3" fill="#8b5cf6"/><circle cx="14" cy="14" r="3.5" fill="#a78bfa"/>
          <circle cx="24" cy="6" r="3" fill="#8b5cf6"/><circle cx="24" cy="22" r="3" fill="#8b5cf6"/></g></g><text x="410" y="50" font-family="'Segoe UI',Verdana,Arial,sans-serif" font-weight="800" font-size="18" letter-spacing="0.5" fill="#e6fbff">AI &amp; Software</text><rect x="410" y="60" width="104" height="3" rx="2" fill="#8b5cf6"><animate attributeName="opacity" values="0.4;1;0.4" dur="3s" repeatCount="indefinite"/></rect><rect x="370" y="96" width="270" height="38" rx="9" fill="#171235" stroke="#8b5cf6" stroke-opacity="0.42" stroke-width="1"/><circle cx="386" cy="115" r="2.5" fill="#8b5cf6"><animate attributeName="opacity" values="0.35;1;0.35" dur="2.5s" repeatCount="indefinite"/></circle><text x="400" y="120" font-family="'Consolas','Courier New',monospace" font-weight="600" font-size="14" fill="#ddd6fe">Python</text><rect x="370" y="142" width="270" height="38" rx="9" fill="#171235" stroke="#8b5cf6" stroke-opacity="0.42" stroke-width="1"/><circle cx="386" cy="161" r="2.5" fill="#8b5cf6"><animate attributeName="opacity" values="0.35;1;0.35" dur="2.7s" repeatCount="indefinite"/></circle><text x="400" y="166" font-family="'Consolas','Courier New',monospace" font-weight="600" font-size="14" fill="#ddd6fe">FastAPI</text><rect x="370" y="188" width="270" height="38" rx="9" fill="#171235" stroke="#8b5cf6" stroke-opacity="0.42" stroke-width="1"/><circle cx="386" cy="207" r="2.5" fill="#8b5cf6"><animate attributeName="opacity" values="0.35;1;0.35" dur="2.9s" repeatCount="indefinite"/></circle><text x="400" y="212" font-family="'Consolas','Courier New',monospace" font-weight="600" font-size="14" fill="#ddd6fe">TensorFlow</text><rect x="370" y="234" width="270" height="38" rx="9" fill="#171235" stroke="#8b5cf6" stroke-opacity="0.42" stroke-width="1"/><circle cx="386" cy="253" r="2.5" fill="#8b5cf6"><animate attributeName="opacity" values="0.35;1;0.35" dur="3.1s" repeatCount="indefinite"/></circle><text x="400" y="258" font-family="'Consolas','Courier New',monospace" font-weight="600" font-size="14" fill="#ddd6fe">MediaPipe · OpenCV</text><rect x="370" y="280" width="270" height="38" rx="9" fill="#171235" stroke="#8b5cf6" stroke-opacity="0.42" stroke-width="1"/><circle cx="386" cy="299" r="2.5" fill="#8b5cf6"><animate attributeName="opacity" values="0.35;1;0.35" dur="3.3s" repeatCount="indefinite"/></circle><text x="400" y="304" font-family="'Consolas','Courier New',monospace" font-weight="600" font-size="14" fill="#ddd6fe">Streamlit</text><rect x="370" y="326" width="270" height="38" rx="9" fill="#171235" stroke="#8b5cf6" stroke-opacity="0.42" stroke-width="1"/><circle cx="386" cy="345" r="2.5" fill="#8b5cf6"><animate attributeName="opacity" values="0.35;1;0.35" dur="3.5s" repeatCount="indefinite"/></circle><text x="400" y="350" font-family="'Consolas','Courier New',monospace" font-weight="600" font-size="14" fill="#ddd6fe">NumPy · Pandas</text><rect x="370" y="372" width="270" height="38" rx="9" fill="#171235" stroke="#8b5cf6" stroke-opacity="0.42" stroke-width="1"/><circle cx="386" cy="391" r="2.5" fill="#8b5cf6"><animate attributeName="opacity" values="0.35;1;0.35" dur="3.7s" repeatCount="indefinite"/></circle><text x="400" y="396" font-family="'Consolas','Courier New',monospace" font-weight="600" font-size="14" fill="#ddd6fe">Git · Linux</text><rect x="370" y="418" width="270" height="38" rx="9" fill="#171235" stroke="#8b5cf6" stroke-opacity="0.42" stroke-width="1"/><circle cx="386" cy="437" r="2.5" fill="#8b5cf6"><animate attributeName="opacity" values="0.35;1;0.35" dur="3.9s" repeatCount="indefinite"/></circle><text x="400" y="442" font-family="'Consolas','Courier New',monospace" font-weight="600" font-size="14" fill="#ddd6fe">Prompt Engineering</text><g transform="translate(702,30)"><path d="M2 16 L7 16 L10 8 L14 24 L18 6 L21 16 L26 16" stroke="#ec4899" stroke-width="2" fill="none" stroke-linecap="round" stroke-linejoin="round"/></g><text x="740" y="50" font-family="'Segoe UI',Verdana,Arial,sans-serif" font-weight="800" font-size="18" letter-spacing="0.5" fill="#e6fbff">Biomedical Systems</text><rect x="740" y="60" width="144" height="3" rx="2" fill="#ec4899"><animate attributeName="opacity" values="0.4;1;0.4" dur="3s" repeatCount="indefinite"/></rect><rect x="700" y="96" width="270" height="38" rx="9" fill="#2a1024" stroke="#ec4899" stroke-opacity="0.42" stroke-width="1"/><circle cx="716" cy="115" r="2.5" fill="#ec4899"><animate attributeName="opacity" values="0.35;1;0.35" dur="2.5s" repeatCount="indefinite"/></circle><text x="730" y="120" font-family="'Consolas','Courier New',monospace" font-weight="600" font-size="14" fill="#fbcfe8">MRI · PET-CT</text><rect x="700" y="142" width="270" height="38" rx="9" fill="#2a1024" stroke="#ec4899" stroke-opacity="0.42" stroke-width="1"/><circle cx="716" cy="161" r="2.5" fill="#ec4899"><animate attributeName="opacity" values="0.35;1;0.35" dur="2.7s" repeatCount="indefinite"/></circle><text x="730" y="166" font-family="'Consolas','Courier New',monospace" font-weight="600" font-size="14" fill="#fbcfe8">CT · X-Ray</text><rect x="700" y="188" width="270" height="38" rx="9" fill="#2a1024" stroke="#ec4899" stroke-opacity="0.42" stroke-width="1"/><circle cx="716" cy="207" r="2.5" fill="#ec4899"><animate attributeName="opacity" values="0.35;1;0.35" dur="2.9s" repeatCount="indefinite"/></circle><text x="730" y="212" font-family="'Consolas','Courier New',monospace" font-weight="600" font-size="14" fill="#fbcfe8">Ultrasound</text><rect x="700" y="234" width="270" height="38" rx="9" fill="#2a1024" stroke="#ec4899" stroke-opacity="0.42" stroke-width="1"/><circle cx="716" cy="253" r="2.5" fill="#ec4899"><animate attributeName="opacity" values="0.35;1;0.35" dur="3.1s" repeatCount="indefinite"/></circle><text x="730" y="258" font-family="'Consolas','Courier New',monospace" font-weight="600" font-size="14" fill="#fbcfe8">ECG · Monitoring</text><rect x="700" y="280" width="270" height="38" rx="9" fill="#2a1024" stroke="#ec4899" stroke-opacity="0.42" stroke-width="1"/><circle cx="716" cy="299" r="2.5" fill="#ec4899"><animate attributeName="opacity" values="0.35;1;0.35" dur="3.3s" repeatCount="indefinite"/></circle><text x="730" y="304" font-family="'Consolas','Courier New',monospace" font-weight="600" font-size="14" fill="#fbcfe8">Electrochemical</text><rect x="700" y="326" width="270" height="38" rx="9" fill="#2a1024" stroke="#ec4899" stroke-opacity="0.42" stroke-width="1"/><circle cx="716" cy="345" r="2.5" fill="#ec4899"><animate attributeName="opacity" values="0.35;1;0.35" dur="3.5s" repeatCount="indefinite"/></circle><text x="730" y="350" font-family="'Consolas','Courier New',monospace" font-weight="600" font-size="14" fill="#fbcfe8">Biosensors</text><rect x="700" y="372" width="270" height="38" rx="9" fill="#2a1024" stroke="#ec4899" stroke-opacity="0.42" stroke-width="1"/><circle cx="716" cy="391" r="2.5" fill="#ec4899"><animate attributeName="opacity" values="0.35;1;0.35" dur="3.7s" repeatCount="indefinite"/></circle><text x="730" y="396" font-family="'Consolas','Courier New',monospace" font-weight="600" font-size="14" fill="#fbcfe8">High Voltage</text><rect x="700" y="418" width="270" height="38" rx="9" fill="#2a1024" stroke="#ec4899" stroke-opacity="0.42" stroke-width="1"/><circle cx="716" cy="437" r="2.5" fill="#ec4899"><animate attributeName="opacity" values="0.35;1;0.35" dur="3.9s" repeatCount="indefinite"/></circle><text x="730" y="442" font-family="'Consolas','Courier New',monospace" font-weight="600" font-size="14" fill="#fbcfe8">Instrumentation</text><line x1="40" y1="480" x2="1000" y2="480" stroke="#22d3ee" stroke-opacity="0.12"/><path d="M48 494 l-10 14 h8 l-4 12 14 -18 h-8 z" fill="#fbbf24"/><text x="68" y="508" font-family="'Segoe UI',Verdana,Arial,sans-serif" font-weight="800" font-size="15" letter-spacing="1" fill="#fbbf24">CURRENTLY LEVELING UP</text><rect x="310" y="488" width="190" height="30" rx="15" fill="#1c1708" stroke="#fbbf24" stroke-opacity="0.5" stroke-width="1"/><text x="405" y="508" text-anchor="middle" font-family="'Consolas','Courier New',monospace" font-weight="600" font-size="13" fill="#fde68a">Embedded ML / TinyML</text><rect x="512.0" y="488" width="81" height="30" rx="15" fill="#1c1708" stroke="#fbbf24" stroke-opacity="0.5" stroke-width="1"/><text x="552" y="508" text-anchor="middle" font-family="'Consolas','Courier New',monospace" font-weight="600" font-size="13" fill="#fde68a">PyTorch</text><rect x="604.8" y="488" width="56" height="30" rx="15" fill="#1c1708" stroke="#fbbf24" stroke-opacity="0.5" stroke-width="1"/><text x="633" y="508" text-anchor="middle" font-family="'Consolas','Courier New',monospace" font-weight="600" font-size="13" fill="#fde68a">RTOS</text><rect x="672.4" y="488" width="165" height="30" rx="15" fill="#1c1708" stroke="#fbbf24" stroke-opacity="0.5" stroke-width="1"/><text x="755" y="508" text-anchor="middle" font-family="'Consolas','Courier New',monospace" font-weight="600" font-size="13" fill="#fde68a">Signal Processing</text><rect x="849.2" y="488" width="131" height="30" rx="15" fill="#1c1708" stroke="#fbbf24" stroke-opacity="0.5" stroke-width="1"/><text x="915" y="508" text-anchor="middle" font-family="'Consolas','Courier New',monospace" font-weight="600" font-size="13" fill="#fde68a">Rust for MCUs</text>
</svg>